<svg width="1200" height="900" viewBox="0 0 1200 900" fill="none" xmlns="http://www.w3.org/2000/svg">
  <rect width="1200" height="900" rx="56" fill="#020617"/>
  <rect x="58" y="58" width="1084" height="784" rx="40" fill="url(#paint0_linear)"/>
  <circle cx="972" cy="228" r="156" fill="url(#paint1_radial)" fill-opacity="0.9"/>
  <rect x="122" y="134" width="352" height="32" rx="16" fill="#E2E8F0" fill-opacity="0.74"/>
  <rect x="122" y="194" width="216" height="22" rx="11" fill="#E2E8F0" fill-opacity="0.35"/>
  <rect x="122" y="296" width="438" height="280" rx="34" fill="#0F172A" fill-opacity="0.84" stroke="#38BDF8" stroke-opacity="0.2"/>
  <rect x="586" y="296" width="490" height="148" rx="28" fill="#F8FAFC" fill-opacity="0.92"/>
  <rect x="624" y="338" width="190" height="22" rx="11" fill="#0F172A"/>
  <rect x="624" y="380" width="284" height="18" rx="9" fill="#64748B" fill-opacity="0.75"/>
  <rect x="624" y="496" width="452" height="186" rx="34" fill="#E2E8F0" fill-opacity="0.1" stroke="#FFFFFF" stroke-opacity="0.12"/>
  <rect x="122" y="620" width="290" height="144" rx="28" fill="#F8FAFC" fill-opacity="0.08" stroke="#FFFFFF" stroke-opacity="0.08"/>
  <rect x="438" y="620" width="290" height="144" rx="28" fill="#F8FAFC" fill-opacity="0.08" stroke="#FFFFFF" stroke-opacity="0.08"/>
  <rect x="754" y="620" width="322" height="144" rx="28" fill="#F8FAFC" fill-opacity="0.08" stroke="#FFFFFF" stroke-opacity="0.08"/>
  <defs>
    <linearGradient id="paint0_linear" x1="58" y1="58" x2="1142" y2="842" gradientUnits="userSpaceOnUse">
      <stop stop-color="#082F49"/>
      <stop offset="0.45" stop-color="#0F172A"/>
      <stop offset="1" stop-color="#111827"/>
    </linearGradient>
    <radialGradient id="paint1_radial" cx="0" cy="0" r="1" gradientUnits="userSpaceOnUse" gradientTransform="translate(972 228) rotate(90) scale(156)">
      <stop stop-color="#38BDF8"/>
      <stop offset="1" stop-color="#38BDF8" stop-opacity="0"/>
    </radialGradient>
  </defs>
</svg>
