<svg width="1200" height="900" viewBox="0 0 1200 900" fill="none" xmlns="http://www.w3.org/2000/svg">
  <rect width="1200" height="900" rx="56" fill="#172033"/>
  <rect x="58" y="58" width="1084" height="784" rx="40" fill="url(#paint0_linear)"/>
  <circle cx="922" cy="218" r="182" fill="url(#paint1_radial)"/>
  <rect x="122" y="124" width="182" height="18" rx="9" fill="#FCE7F3" fill-opacity="0.7"/>
  <rect x="122" y="170" width="418" height="28" rx="14" fill="#FFF1F2"/>
  <rect x="122" y="238" width="386" height="18" rx="9" fill="#F9A8D4" fill-opacity="0.55"/>
  <rect x="122" y="320" width="422" height="410" rx="36" fill="#FFF1F2" fill-opacity="0.94"/>
  <rect x="584" y="320" width="492" height="186" rx="32" fill="#1E1B4B" fill-opacity="0.8" stroke="#F472B6" stroke-opacity="0.22"/>
  <rect x="624" y="362" width="192" height="24" rx="12" fill="#FFF1F2"/>
  <rect x="624" y="406" width="286" height="18" rx="9" fill="#FBCFE8" fill-opacity="0.7"/>
  <rect x="584" y="544" width="492" height="186" rx="32" fill="#FFF1F2" fill-opacity="0.08" stroke="#FFFFFF" stroke-opacity="0.12"/>
  <path d="M722 612C760 590 788 560 830 560C888 560 896 650 956 650C1000 650 1022 624 1046 598" stroke="#F472B6" stroke-width="10" stroke-linecap="round"/>
  <defs>
    <linearGradient id="paint0_linear" x1="58" y1="58" x2="1142" y2="842" gradientUnits="userSpaceOnUse">
      <stop stop-color="#312E81"/>
      <stop offset="0.46" stop-color="#172033"/>
      <stop offset="1" stop-color="#0F172A"/>
    </linearGradient>
    <radialGradient id="paint1_radial" cx="0" cy="0" r="1" gradientUnits="userSpaceOnUse" gradientTransform="translate(922 218) rotate(90) scale(182)">
      <stop stop-color="#F472B6"/>
      <stop offset="1" stop-color="#F472B6" stop-opacity="0"/>
    </radialGradient>
  </defs>
</svg>
